<svg width="32" height="32" viewBox="0 0 32 32" fill="none" xmlns="http://www.w3.org/2000/svg">
<g clip-path="url(#clip0_4494_2207)">
<circle cx="16" cy="16" r="16" fill="#FFF3CA"/>
<g clip-path="url(#clip1_4494_2207)">
<path d="M19.0808 8.71306L17.9813 11.1096C16.7707 10.7 15.6635 10.5656 14.6598 10.7063C14.7612 11.2798 14.9044 11.9255 15.0892 12.6432L19.1002 11.4929L19.7576 13.7849L15.7951 14.9213C16.0262 15.6539 16.3467 16.4904 16.7566 17.4309L14.7569 18.8874C16.2963 19.6371 18.1569 19.6991 20.3389 19.0733C20.5849 19.0027 20.8356 18.9238 21.0908 18.8366L19.7884 22.3213C16.9513 22.8127 14.5555 22.4488 12.6012 21.2294C10.6533 20.0083 9.21974 17.7952 8.30054 14.5903L14.5696 8.00983C15.6627 8.37603 17.1664 8.61045 19.0808 8.71306ZM13.7806 18.3055L14.4297 17.8566C13.8288 16.4943 13.3798 15.2952 13.0826 14.2593C12.7855 13.2234 12.564 12.39 12.4181 11.7591C12.0854 12.0648 11.8331 12.3824 11.6613 12.7119C11.4961 13.0396 11.3937 13.3423 11.3542 13.6199C11.3193 13.8891 11.3659 14.2472 11.494 14.6939C11.6203 15.1342 11.7224 15.4658 11.8004 15.6887C12.1391 16.6987 12.7992 17.5709 13.7806 18.3055Z" fill="#8B1F1F"/>
<g clip-path="url(#clip2_4494_2207)">
<mask id="mask0_4494_2207" style="mask-type:alpha" maskUnits="userSpaceOnUse" x="-1" y="-1" width="34" height="34">
<path fill-rule="evenodd" clip-rule="evenodd" d="M-0.490723 -0.645996H32.4867V32.3315H-0.490723V-0.645996ZM16.8226 4.85006C16.8226 5.30539 16.4535 5.6745 15.9981 5.6745C15.5428 5.6745 15.1737 5.30539 15.1737 4.85006C15.1737 4.39474 15.5428 4.02563 15.9981 4.02563C16.4535 4.02563 16.8226 4.39474 16.8226 4.85006ZM25.6686 12.7004C25.8093 13.1334 26.2744 13.3704 26.7075 13.2297C27.1405 13.089 27.3775 12.6239 27.2368 12.1909C27.0961 11.7578 26.631 11.5208 26.198 11.6615C25.7649 11.8022 25.5279 12.2673 25.6686 12.7004ZM21.7925 25.2202C21.5249 24.8519 21.6065 24.3363 21.9749 24.0687C22.3432 23.801 22.8588 23.8827 23.1264 24.251C23.3941 24.6194 23.3124 25.135 22.9441 25.4026C22.5757 25.6703 22.0601 25.5886 21.7925 25.2202ZM10.0215 24.0687C9.65314 23.801 9.13756 23.8827 8.86993 24.2511C8.6023 24.6194 8.68396 25.135 9.05232 25.4026C9.42069 25.6703 9.93627 25.5886 10.2039 25.2202C10.4715 24.8519 10.3899 24.3363 10.0215 24.0687ZM5.79847 11.6616C6.23151 11.8023 6.46849 12.2674 6.32779 12.7004C6.18709 13.1335 5.72198 13.3704 5.28894 13.2297C4.8559 13.089 4.61892 12.6239 4.75962 12.1909C4.90032 11.7579 5.36543 11.5209 5.79847 11.6616Z" fill="white"/>
</mask>
<g mask="url(#mask0_4494_2207)">
<path d="M15.9981 27.6592C22.5244 27.6592 27.815 22.3686 27.815 15.8423C27.815 9.31601 22.5244 4.02539 15.9981 4.02539C9.47177 4.02539 4.18115 9.31601 4.18115 15.8423C4.18115 22.3686 9.47177 27.6592 15.9981 27.6592Z" stroke="#8B1F1F" stroke-width="2.47331"/>
<path d="M28.6396 16.6669L30.0137 15.8425L28.6396 15.0181V16.6669Z" fill="#8B1F1F" stroke="#8B1F1F" stroke-width="0.824437" stroke-linejoin="round"/>
<path d="M28.2354 19.1172L29.7439 18.5767L28.5571 17.5L28.2354 19.1172Z" fill="#8B1F1F" stroke="#8B1F1F" stroke-width="0.824437" stroke-linejoin="round"/>
<path d="M27.3617 21.4418L28.9466 21.206L27.9927 19.9185L27.3617 21.4418Z" fill="#8B1F1F" stroke="#8B1F1F" stroke-width="0.824437" stroke-linejoin="round"/>
<path d="M26.0512 23.5512L27.6517 23.6291L26.9673 22.1802L26.0512 23.5512Z" fill="#8B1F1F" stroke="#8B1F1F" stroke-width="0.824437" stroke-linejoin="round"/>
<path d="M24.3541 25.3642L25.9087 25.7528L25.52 24.1982L24.3541 25.3642Z" fill="#8B1F1F" stroke="#8B1F1F" stroke-width="0.824437" stroke-linejoin="round"/>
<path d="M22.336 26.8116L23.7849 27.496L23.707 25.8955L22.336 26.8116Z" fill="#8B1F1F" stroke="#8B1F1F" stroke-width="0.824437" stroke-linejoin="round"/>
<path d="M20.0743 27.8371L21.3618 28.791L21.5977 27.2061L20.0743 27.8371Z" fill="#8B1F1F" stroke="#8B1F1F" stroke-width="0.824437" stroke-linejoin="round"/>
<path d="M17.6558 28.4018L18.7324 29.5886L19.2729 28.0801L17.6558 28.4018Z" fill="#8B1F1F" stroke="#8B1F1F" stroke-width="0.824437" stroke-linejoin="round"/>
<path d="M15.1739 28.4839L15.9983 29.8579L16.8228 28.4839H15.1739Z" fill="#8B1F1F" stroke="#8B1F1F" stroke-width="0.824437" stroke-linejoin="round"/>
<path d="M12.7231 28.0802L13.2637 29.5887L14.3403 28.4019L12.7231 28.0802Z" fill="#8B1F1F" stroke="#8B1F1F" stroke-width="0.824437" stroke-linejoin="round"/>
<path d="M10.399 27.2059L10.6349 28.7909L11.9224 27.8369L10.399 27.2059Z" fill="#8B1F1F" stroke="#8B1F1F" stroke-width="0.824437" stroke-linejoin="round"/>
<path d="M8.28966 25.8955L8.21176 27.496L9.66064 26.8115L8.28966 25.8955Z" fill="#8B1F1F" stroke="#8B1F1F" stroke-width="0.824437" stroke-linejoin="round"/>
<path d="M6.47616 24.1983L6.08752 25.7529L7.64209 25.3643L6.47616 24.1983Z" fill="#8B1F1F" stroke="#8B1F1F" stroke-width="0.824437" stroke-linejoin="round"/>
<path d="M5.02925 22.1803L4.34479 23.6292L5.94531 23.5513L5.02925 22.1803Z" fill="#8B1F1F" stroke="#8B1F1F" stroke-width="0.824437" stroke-linejoin="round"/>
<path d="M4.00328 19.9185L3.04931 21.206L4.63428 21.4419L4.00328 19.9185Z" fill="#8B1F1F" stroke="#8B1F1F" stroke-width="0.824437" stroke-linejoin="round"/>
<path d="M3.43906 17.5L2.25224 18.5767L3.76074 19.1172L3.43906 17.5Z" fill="#8B1F1F" stroke="#8B1F1F" stroke-width="0.824437" stroke-linejoin="round"/>
<path d="M3.35693 15.0181L1.98287 15.8426L3.35693 16.667V15.0181Z" fill="#8B1F1F" stroke="#8B1F1F" stroke-width="0.824437" stroke-linejoin="round"/>
<path d="M3.76064 12.5679L2.25215 13.1084L3.43896 14.1851L3.76064 12.5679Z" fill="#8B1F1F" stroke="#8B1F1F" stroke-width="0.824437" stroke-linejoin="round"/>
<path d="M4.63441 10.2432L3.04945 10.4791L4.00342 11.7666L4.63441 10.2432Z" fill="#8B1F1F" stroke="#8B1F1F" stroke-width="0.824437" stroke-linejoin="round"/>
<path d="M5.94536 8.13389L4.34484 8.056L5.0293 9.50488L5.94536 8.13389Z" fill="#8B1F1F" stroke="#8B1F1F" stroke-width="0.824437" stroke-linejoin="round"/>
<path d="M7.64249 6.32089L6.08792 5.93224L6.47656 7.48682L7.64249 6.32089Z" fill="#8B1F1F" stroke="#8B1F1F" stroke-width="0.824437" stroke-linejoin="round"/>
<path d="M9.66054 4.87349L8.21166 4.18903L8.28955 5.78955L9.66054 4.87349Z" fill="#8B1F1F" stroke="#8B1F1F" stroke-width="0.824437" stroke-linejoin="round"/>
<path d="M11.9223 3.84801L10.6348 2.89404L10.3989 4.479L11.9223 3.84801Z" fill="#8B1F1F" stroke="#8B1F1F" stroke-width="0.824437" stroke-linejoin="round"/>
<path d="M14.3403 3.2833L13.2637 2.09648L12.7231 3.60498L14.3403 3.2833Z" fill="#8B1F1F" stroke="#8B1F1F" stroke-width="0.824437" stroke-linejoin="round"/>
<path d="M16.8227 3.20117L15.9983 1.82711L15.1738 3.20117L16.8227 3.20117Z" fill="#8B1F1F" stroke="#8B1F1F" stroke-width="0.824437" stroke-linejoin="round"/>
<path d="M19.273 3.60488L18.7324 2.09638L17.6558 3.2832L19.273 3.60488Z" fill="#8B1F1F" stroke="#8B1F1F" stroke-width="0.824437" stroke-linejoin="round"/>
<path d="M21.5976 4.47914L21.3617 2.89418L20.0742 3.84814L21.5976 4.47914Z" fill="#8B1F1F" stroke="#8B1F1F" stroke-width="0.824437" stroke-linejoin="round"/>
<path d="M23.7069 5.7896L23.7848 4.18908L22.3359 4.87354L23.7069 5.7896Z" fill="#8B1F1F" stroke="#8B1F1F" stroke-width="0.824437" stroke-linejoin="round"/>
<path d="M25.5199 7.48673L25.9086 5.93216L24.354 6.3208L25.5199 7.48673Z" fill="#8B1F1F" stroke="#8B1F1F" stroke-width="0.824437" stroke-linejoin="round"/>
<path d="M26.9673 9.50478L27.6518 8.0559L26.0513 8.13379L26.9673 9.50478Z" fill="#8B1F1F" stroke="#8B1F1F" stroke-width="0.824437" stroke-linejoin="round"/>
<path d="M27.9928 11.7665L28.9468 10.479L27.3618 10.2432L27.9928 11.7665Z" fill="#8B1F1F" stroke="#8B1F1F" stroke-width="0.824437" stroke-linejoin="round"/>
<path d="M28.5575 14.1851L29.7443 13.1084L28.2358 12.5679L28.5575 14.1851Z" fill="#8B1F1F" stroke="#8B1F1F" stroke-width="0.824437" stroke-linejoin="round"/>
<path d="M14.0742 4.30029L15.9979 6.22398L17.9216 4.30029H14.0742Z" fill="#8B1F1F" stroke="#8B1F1F" stroke-width="1.64887" stroke-linejoin="round"/>
<path d="M26.3809 10.4463L25.1458 12.8703L27.5698 14.1054L26.3809 10.4463Z" fill="#8B1F1F" stroke="#8B1F1F" stroke-width="1.64887" stroke-linejoin="round"/>
<path d="M24.3389 24.0498L21.6519 23.6242L21.2263 26.3112L24.3389 24.0498Z" fill="#8B1F1F" stroke="#8B1F1F" stroke-width="1.64887" stroke-linejoin="round"/>
<path d="M10.77 26.311L10.3444 23.624L7.65743 24.0496L10.77 26.311Z" fill="#8B1F1F" stroke="#8B1F1F" stroke-width="1.64887" stroke-linejoin="round"/>
<path d="M4.42627 14.1055L6.85025 12.8704L5.61517 10.4464L4.42627 14.1055Z" fill="#8B1F1F" stroke="#8B1F1F" stroke-width="1.64887" stroke-linejoin="round"/>
</g>
</g>
</g>
</g>
<defs>
<clipPath id="clip0_4494_2207">
<rect width="32" height="32" fill="white"/>
</clipPath>
<clipPath id="clip1_4494_2207">
<rect width="29.2701" height="29.6668" fill="white" transform="translate(1.36475 1.22949)"/>
</clipPath>
<clipPath id="clip2_4494_2207">
<rect width="29.1301" height="29.1301" fill="white" transform="translate(1.43311 1.27734)"/>
</clipPath>
</defs>
</svg>
